<?xml version="1.0" standalone="no"?>
<!DOCTYPE svg PUBLIC "-//W3C//DTD SVG 20010904//EN"
 "http://www.w3.org/TR/2001/REC-SVG-20010904/DTD/svg10.dtd">
<svg version="1.0" xmlns="http://www.w3.org/2000/svg"
 width="499.000000pt" height="500.000000pt" viewBox="0 0 499.000000 500.000000"
 preserveAspectRatio="xMidYMid meet">

<g transform="translate(0.000000,500.000000) scale(0.100000,-0.100000)"
fill="#000000" stroke="none">
<path d="M2215 3284 c-185 -79 -337 -226 -420 -407 -30 -66 -58 -172 -36 -138
5 7 14 11 20 7 6 -4 9 -2 5 7 -7 18 28 16 53 -4 16 -13 17 -12 5 3 -8 10 -9
19 -3 22 5 3 11 1 13 -5 2 -6 16 -13 31 -14 15 -2 25 1 22 5 -3 5 -1 17 4 27
5 10 17 42 26 72 43 141 135 278 249 368 40 32 82 63 92 70 32 20 2 13 -61
-13z"/>
<path d="M3226 2515 c-3 -8 -1 -15 4 -15 6 0 10 7 10 15 0 8 -2 15 -4 15 -2 0
-6 -7 -10 -15z"/>
<path d="M3255 2500 c3 -5 8 -10 11 -10 2 0 4 5 4 10 0 6 -5 10 -11 10 -5 0
-7 -4 -4 -10z"/>
<path d="M3240 2479 c0 -5 7 -9 15 -9 8 0 18 0 22 -1 4 0 9 3 10 8 2 4 -8 9
-22 9 -14 1 -25 -2 -25 -7z"/>
<path d="M3285 2460 c-3 -5 -12 -7 -20 -3 -25 9 -47 -17 -40 -46 6 -23 5 -24
-7 -8 -12 15 -22 8 -109 -80 -68 -69 -95 -104 -93 -118 2 -18 1 -18 -17 4 -11
13 -22 21 -26 18 -3 -4 -12 -2 -18 3 -9 7 -16 6 -24 -4 -9 -11 -9 -16 0 -22 7
-4 9 -3 5 4 -3 6 -2 13 3 17 12 7 30 -25 24 -43 -3 -7 -39 -46 -80 -87 -41
-40 -72 -79 -68 -84 3 -6 0 -11 -8 -11 -18 0 -87 -59 -87 -74 0 -6 -12 -19
-25 -29 -24 -17 -25 -17 -25 1 0 24 56 102 73 102 8 0 14 7 14 15 0 8 -4 12
-9 9 -4 -3 -8 0 -8 5 0 6 9 16 20 23 26 16 26 32 1 18 -11 -5 -23 -10 -28 -9
-4 0 10 9 32 20 38 18 38 18 10 15 -29 -3 -44 -7 -95 -28 -14 -6 -63 -13 -110
-15 -92 -6 -179 10 -248 46 l-37 19 -50 -46 c-195 -179 -208 -193 -188 -208
48 -37 153 -89 234 -115 92 -30 278 -52 266 -33 -3 6 4 16 16 24 20 12 21 12
8 -3 -11 -14 -11 -18 3 -23 9 -3 33 -3 54 1 46 10 59 12 97 19 93 15 264 98
313 152 12 14 22 22 22 18 0 -23 154 154 162 185 2 8 10 22 19 31 23 25 76
158 84 212 5 31 2 64 -6 93 -13 44 -22 54 -34 35z m-32 -30 c-3 -11 -7 -20 -9
-20 -2 0 -4 9 -4 20 0 11 4 20 9 20 5 0 7 -9 4 -20z m-253 -261 c0 -5 -9 -13
-19 -18 -16 -9 -18 -8 -14 8 4 17 33 26 33 10z m-340 -293 c0 -3 -4 -8 -10
-11 -5 -3 -10 -1 -10 4 0 6 5 11 10 11 6 0 10 -2 10 -4z"/>
<path d="M3020 2306 c0 -8 4 -17 9 -20 5 -4 7 3 4 14 -6 23 -13 26 -13 6z"/>
<path d="M2976 2293 c-6 -14 -5 -15 5 -6 7 7 10 15 7 18 -3 3 -9 -2 -12 -12z"/>
<path d="M2815 2141 c-3 -5 -2 -12 3 -15 5 -3 9 1 9 9 0 17 -3 19 -12 6z"/>
<path d="M2859 2133 c-13 -15 -12 -15 9 -4 23 12 28 21 13 21 -5 0 -15 -7 -22
-17z"/>
</g>
</svg>
